<svg width="60" height="60" viewBox="0 0 60 60" fill="none" xmlns="http://www.w3.org/2000/svg">
<g id="icon_hearing">
<mask id="mask0_41_494" style="mask-type:alpha" maskUnits="userSpaceOnUse" x="0" y="0" width="60" height="60">
<rect id="Bounding box" x="0.5" y="0.5" width="59" height="59" fill="#D9D9D9" stroke="#1C1B1F"/>
</mask>
<g mask="url(#mask0_41_494)">
<g id="hearing">
<mask id="mask1_41_494" style="mask-type:alpha" maskUnits="userSpaceOnUse" x="10" y="12" width="40" height="40">
<rect id="Bounding box_2" x="10" y="12" width="40" height="40" fill="#D9D9D9"/>
</mask>
<g mask="url(#mask1_41_494)">
<path id="hearing_2" d="M21.6245 47.5834C23.0412 47.5834 24.2287 47.1667 25.187 46.3334C26.1453 45.5 26.9023 44.3334 27.4578 42.8334C27.8745 41.6667 28.3676 40.7292 28.937 40.0209C29.5065 39.3125 30.5412 38.3612 32.0412 37.1667C33.7078 35.8334 34.9856 34.3403 35.8745 32.6875C36.7634 31.0348 37.2078 29.1389 37.2078 27C37.2078 23.9723 36.2009 21.4514 34.187 19.4375C32.1731 17.4237 29.6523 16.4167 26.6245 16.4167C23.7634 16.4167 21.3537 17.3056 19.3953 19.0834C17.437 20.8612 16.3467 23.1389 16.1245 25.9167H17.2912C17.5134 23.4723 18.5065 21.4723 20.2703 19.9167C22.0342 18.3612 24.1523 17.5834 26.6245 17.5834C29.2634 17.5834 31.4926 18.4931 33.312 20.3125C35.1315 22.132 36.0412 24.3612 36.0412 27C36.0412 29 35.5759 30.7987 34.6453 32.3959C33.7148 33.9931 32.5412 35.3334 31.1245 36.4167C29.8467 37.3889 28.8676 38.2987 28.187 39.1459C27.5065 39.9931 26.9023 41.0834 26.3745 42.4167C25.8745 43.6667 25.2634 44.6459 24.5412 45.3542C23.819 46.0625 22.8467 46.4167 21.6245 46.4167C20.6245 46.4167 19.7287 46.1042 18.937 45.4792C18.1453 44.8542 17.6245 44.0556 17.3745 43.0834H16.1245C16.3745 44.3889 17.0065 45.4653 18.0203 46.3125C19.0342 47.1598 20.2356 47.5834 21.6245 47.5834ZM39.5412 38.3334C40.8745 36.8334 41.9301 35.1112 42.7078 33.1667C43.4856 31.2223 43.8745 29.1667 43.8745 27C43.8745 24.8334 43.4856 22.7639 42.7078 20.7917C41.9301 18.8195 40.8745 17.0834 39.5412 15.5834L38.7078 16.3334C39.9578 17.8056 40.937 19.4375 41.6453 21.2292C42.3537 23.0209 42.7078 24.9445 42.7078 27C42.7078 29 42.3537 30.8959 41.6453 32.6875C40.937 34.4792 39.9578 36.1112 38.7078 37.5834L39.5412 38.3334ZM26.6245 30.3334C27.569 30.3334 28.3606 30.0139 28.9995 29.375C29.6384 28.7362 29.9578 27.9445 29.9578 27C29.9578 26.0556 29.6384 25.2639 28.9995 24.625C28.3606 23.9862 27.569 23.6667 26.6245 23.6667C25.6801 23.6667 24.8884 23.9862 24.2495 24.625C23.6106 25.2639 23.2912 26.0556 23.2912 27C23.2912 27.9445 23.6106 28.7362 24.2495 29.375C24.8884 30.0139 25.6801 30.3334 26.6245 30.3334Z" fill="#1C1B1F"/>
</g>
</g>
</g>
</g>
</svg>
