<svg width="30" height="30" viewBox="0 0 30 30" fill="none" xmlns="http://www.w3.org/2000/svg">
<g id="clinical_notes">
<mask id="mask0_26_175" style="mask-type:alpha" maskUnits="userSpaceOnUse" x="0" y="0" width="30" height="30">
<rect id="Bounding box" width="30" height="30" fill="#D9D9D9"/>
</mask>
<g mask="url(#mask0_26_175)">
<path id="clinical_notes_2" d="M21.25 19.7173C20.5208 19.7173 19.901 19.4581 19.3906 18.9397C18.8802 18.4213 18.625 17.7918 18.625 17.0513C18.625 16.3107 18.8802 15.6812 19.3906 15.1628C19.901 14.6445 20.5208 14.3853 21.25 14.3853C21.9792 14.3853 22.599 14.6445 23.1094 15.1628C23.6198 15.6812 23.875 16.3107 23.875 17.0513C23.875 17.7918 23.6198 18.4213 23.1094 18.9397C22.599 19.4581 21.9792 19.7173 21.25 19.7173ZM21.25 18.8286C21.7292 18.8286 22.1406 18.6541 22.4844 18.3049C22.8281 17.9558 23 17.5379 23 17.0513C23 16.5646 22.8281 16.1467 22.4844 15.7976C22.1406 15.4485 21.7292 15.2739 21.25 15.2739C20.7708 15.2739 20.3594 15.4485 20.0156 15.7976C19.6719 16.1467 19.5 16.5646 19.5 17.0513C19.5 17.5379 19.6719 17.9558 20.0156 18.3049C20.3594 18.6541 20.7708 18.8286 21.25 18.8286ZM14.875 26.7949V24.2559C14.875 24.0111 14.9326 23.781 15.0478 23.5656C15.1628 23.3499 15.324 23.178 15.5313 23.0498C16.0835 22.7121 16.6661 22.4322 17.2791 22.21C17.8918 21.9878 18.5175 21.8234 19.1563 21.7168L21.25 24.5415L23.3125 21.7168C23.9613 21.8234 24.5925 21.9878 25.2063 22.21C25.82 22.4322 26.4075 22.7121 26.9688 23.0498C27.1771 23.1768 27.3333 23.346 27.4375 23.5576C27.5417 23.7692 27.6042 23.9914 27.625 24.2241V26.7949H14.875ZM15.7188 25.9063H21.1563L18.8125 22.7324C18.2644 22.8583 17.7316 23.0221 17.2141 23.2237C16.6964 23.4252 16.1979 23.6634 15.7188 23.9385V25.9063ZM21.3438 25.9063H26.75V23.9385C26.2708 23.6634 25.7724 23.4307 25.2547 23.2402C24.7372 23.0498 24.2044 22.8911 23.6563 22.7642L21.3438 25.9063ZM7.265 25.0176C6.73417 25.0176 6.28646 24.8311 5.92188 24.458C5.55729 24.0852 5.375 23.637 5.375 23.1133V7.37109C5.375 6.84741 5.55865 6.39906 5.92594 6.02603C6.29302 5.65321 6.73438 5.4668 7.25 5.4668H22.75C23.2656 5.4668 23.7071 5.65321 24.0744 6.02603C24.4415 6.39906 24.625 6.84741 24.625 7.37109V11.5605C24.4792 11.4548 24.3385 11.3648 24.2031 11.2908C24.0677 11.2167 23.9167 11.1479 23.75 11.0845V7.37109C23.75 7.07487 23.6563 6.83154 23.4688 6.64111C23.2813 6.45068 23.0417 6.35547 22.75 6.35547H7.25C6.95833 6.35547 6.71875 6.45068 6.53125 6.64111C6.34375 6.83154 6.25 7.07487 6.25 7.37109V23.1133C6.25 23.4095 6.34375 23.6528 6.53125 23.8433C6.71875 24.0337 6.95833 24.1289 7.25 24.1289H11.125V25.0176H7.265ZM9.5625 10.9893H19C19.2292 10.8835 19.4635 10.8094 19.7031 10.7671C19.9427 10.7248 20.1875 10.6825 20.4375 10.6401V10.1006H9.5625V10.9893ZM9.5625 15.6865H15.0313C15.0729 15.5173 15.1146 15.3639 15.1563 15.2263C15.1979 15.0888 15.2396 14.946 15.2813 14.7979H9.5625V15.6865ZM9.5625 20.3838H12.8125C13.0208 20.2145 13.2344 20.0505 13.4531 19.8918C13.6719 19.7332 13.8958 19.6009 14.125 19.4951H9.5625V20.3838ZM6.25 24.1289V6.35547V11.0845V10.5767V24.1289Z" fill="#1C1B1F"/>
</g>
</g>
</svg>
