<svg width="31" height="30" viewBox="0 0 31 30" fill="none" xmlns="http://www.w3.org/2000/svg">
<g id="tooltip">
<mask id="mask0_26_217" style="mask-type:alpha" maskUnits="userSpaceOnUse" x="0" y="0" width="31" height="30">
<rect id="Bounding box" x="0.5" width="30" height="30" fill="#D9D9D9"/>
</mask>
<g mask="url(#mask0_26_217)">
<path id="tooltip_2" d="M15.5 25.875L12.7812 21.6875H6.5C5.98438 21.6875 5.54302 21.5039 5.17594 21.1366C4.80865 20.7695 4.625 20.3281 4.625 19.8125V6C4.625 5.48438 4.80865 5.04292 5.17594 4.67562C5.54302 4.30854 5.98438 4.125 6.5 4.125H24.5C25.0156 4.125 25.4571 4.30854 25.8244 4.67562C26.1915 5.04292 26.375 5.48438 26.375 6V19.8125C26.375 20.3281 26.1915 20.7695 25.8244 21.1366C25.4571 21.5039 25.0156 21.6875 24.5 21.6875H18.2188L15.5 25.875ZM15.5 24.2812L17.75 20.8125H24.5C24.7917 20.8125 25.0312 20.7188 25.2188 20.5312C25.4062 20.3438 25.5 20.1042 25.5 19.8125V6C25.5 5.70833 25.4062 5.46875 25.2188 5.28125C25.0312 5.09375 24.7917 5 24.5 5H6.5C6.20833 5 5.96875 5.09375 5.78125 5.28125C5.59375 5.46875 5.5 5.70833 5.5 6V19.8125C5.5 20.1042 5.59375 20.3438 5.78125 20.5312C5.96875 20.7188 6.20833 20.8125 6.5 20.8125H13.25L15.5 24.2812Z" fill="#1C1B1F"/>
</g>
</g>
</svg>
