<svg width="30" height="30" viewBox="0 0 30 30" fill="none" xmlns="http://www.w3.org/2000/svg">
<g id="apartment">
<mask id="mask0_26_189" style="mask-type:alpha" maskUnits="userSpaceOnUse" x="0" y="0" width="30" height="30">
<rect id="Bounding box" width="30" height="30" fill="#D9D9D9"/>
</mask>
<g mask="url(#mask0_26_189)">
<path id="apartment_2" d="M4.56201 24.875V9H9.56201V4H20.437V14H25.437V24.875H17.062V19.875H12.937V24.875H4.56201ZM5.43701 24H9.56201V19.875H5.43701V24ZM5.43701 19H9.56201V14.875H5.43701V19ZM5.43701 14H9.56201V9.875H5.43701V14ZM10.437 19H14.562V14.875H10.437V19ZM10.437 14H14.562V9.875H10.437V14ZM10.437 9H14.562V4.875H10.437V9ZM15.437 19H19.562V14.875H15.437V19ZM15.437 14H19.562V9.875H15.437V14ZM15.437 9H19.562V4.875H15.437V9ZM20.437 24H24.562V19.875H20.437V24ZM20.437 19H24.562V14.875H20.437V19Z" fill="#1C1B1F"/>
</g>
</g>
</svg>
