<svg width="60" height="60" viewBox="0 0 60 60" fill="none" xmlns="http://www.w3.org/2000/svg">
<g id="icon_land">
<mask id="mask0_41_452" style="mask-type:alpha" maskUnits="userSpaceOnUse" x="0" y="0" width="60" height="60">
<rect id="Bounding box" x="0.5" y="0.5" width="59" height="59" fill="#D9D9D9" stroke="#1C1B1F"/>
</mask>
<g mask="url(#mask0_41_452)">
<path id="grass" d="M11 44V42.6408H21.925C21.2464 39.9676 19.9345 37.657 17.9893 35.7087C16.044 33.7605 13.7143 32.4466 11 31.767C11.5881 31.5858 12.1988 31.4498 12.8321 31.3592C13.4655 31.2686 14.1214 31.2233 14.8 31.2233C19.0071 31.2233 22.5923 32.2994 25.5554 34.4515C28.5185 36.6036 30 39.7864 30 44H11ZM31.3571 44C31.3571 43.5469 31.3458 43.0485 31.3232 42.5049C31.3006 41.9612 31.1988 41.3722 31.0179 40.7379C32.194 38.11 33.981 35.8673 36.3786 34.0097C38.7762 32.1521 41.7167 31.2233 45.2 31.2233C45.8333 31.2233 46.4667 31.2686 47.1 31.3592C47.7333 31.4498 48.3667 31.5858 49 31.767C46.2857 32.4466 43.956 33.7718 42.0107 35.7427C40.0655 37.7136 38.7536 40.0129 38.075 42.6408H49V44H31.3571ZM30.8143 39.3107C30.3167 36.6828 30.294 34.2249 30.7464 31.9369C31.1988 29.6489 32.047 27.6553 33.2911 25.9563C34.5351 24.2573 36.1185 22.8641 38.0411 21.7767C39.9637 20.6893 42.169 20.0324 44.6571 19.8058C41.8976 21.5728 39.8845 23.5777 38.6179 25.8204C37.3512 28.0631 36.5369 30.2492 36.175 32.3786C34.9988 33.0583 33.8339 34.1003 32.6804 35.5049C31.5268 36.9094 30.9048 38.178 30.8143 39.3107ZM29.2536 36.5243C28.575 35.5275 27.7494 34.5987 26.7768 33.7379C25.8042 32.877 24.8655 32.2654 23.9607 31.9029C24.0964 31.5858 24.1869 31.1327 24.2321 30.5437C24.2774 29.9547 24.3 29.3657 24.3 28.7767C24.3 26.466 23.9268 24.2233 23.1804 22.0485C22.4339 19.8738 21.3369 17.8576 19.8893 16C22.2417 16.9968 24.3792 18.5939 26.3018 20.7913C28.2244 22.9887 29.5024 25.8091 30.1357 29.2524C29.6833 30.3398 29.4006 31.5631 29.2875 32.9223C29.1744 34.2816 29.1631 35.4822 29.2536 36.5243Z" fill="#1C1B1F"/>
</g>
</g>
</svg>
