<svg width="31" height="30" viewBox="0 0 31 30" fill="none" xmlns="http://www.w3.org/2000/svg">
<g id="concierge">
<mask id="mask0_26_254" style="mask-type:alpha" maskUnits="userSpaceOnUse" x="0" y="0" width="31" height="30">
<rect id="Bounding box" x="0.5" width="30" height="30" fill="#D9D9D9"/>
</mask>
<g mask="url(#mask0_26_254)">
<path id="concierge_2" d="M14.125 25.375V24.75H27.375V25.375H14.125ZM15.5938 22.6562C15.5938 21.3021 16.0602 20.1344 16.9931 19.1531C17.9263 18.1717 19.0744 17.631 20.4375 17.5312V17.375C20.4375 17.3333 20.4672 17.2708 20.5266 17.1875C20.5859 17.1042 20.6604 17.0625 20.75 17.0625C20.7917 17.0625 20.8542 17.1042 20.9375 17.1875C21.0208 17.2708 21.0625 17.3333 21.0625 17.375V17.5625C22.3958 17.6458 23.5312 18.1781 24.4688 19.1594C25.4062 20.1406 25.875 21.3062 25.875 22.6562H15.5938ZM16.125 22.0312H25.3438C25.1354 20.9062 24.6047 19.974 23.7516 19.2344C22.8984 18.4948 21.8979 18.125 20.75 18.125C19.5833 18.125 18.5729 18.4948 17.7188 19.2344C16.8646 19.974 16.3333 20.9062 16.125 22.0312ZM3.6875 14.75V5.875H7.9375V7.40625L17.1875 4.4375L25.3125 6.9375V6.84375C25.3125 7.66833 24.9792 8.37969 24.3125 8.97781C23.6458 9.57594 22.8333 9.875 21.875 9.875H19.5V9.8125C19.5 10.1667 19.2656 10.6146 18.7969 11.1562C18.3281 11.6979 17.9167 12.0312 17.5625 12.1562L10.125 14.75H3.6875ZM4.3125 14.125H7.3125V6.5H4.3125V14.125ZM7.9375 14.125H10.0625L18.375 11.125C18.5244 11.0792 18.645 10.9979 18.7369 10.8812C18.829 10.7646 18.875 10.6271 18.875 10.4687V9.875H15.0938L12.2812 10.9688L11.9375 10.375L14.9062 9.25H21.875C22.375 9.25 22.9323 9.08542 23.5469 8.75625C24.1615 8.42729 24.5104 7.95646 24.5938 7.34375L17.1875 5.125L7.9375 8.125V14.125Z" fill="#1C1B1F"/>
</g>
</g>
</svg>
