<svg width="30" height="30" viewBox="0 0 30 30" fill="none" xmlns="http://www.w3.org/2000/svg">
<g id="concierge">
<mask id="mask0_52_190" style="mask-type:alpha" maskUnits="userSpaceOnUse" x="0" y="0" width="30" height="30">
<rect id="Bounding box" width="30" height="30" fill="#D9D9D9"/>
</mask>
<g mask="url(#mask0_52_190)">
<path id="handshake" d="M15.0744 25.0938C15.2827 25.0938 15.4911 25.0521 15.6994 24.9687C15.9077 24.8854 16.0848 24.7708 16.2307 24.625L25.1682 15.6562C25.4598 15.3646 25.6994 15.0729 25.8869 14.7812C26.0744 14.4896 26.1682 14.1484 26.1682 13.7578C26.1682 13.3689 26.0744 12.9891 25.8869 12.6184C25.6994 12.2478 25.4598 11.9062 25.1682 11.5937L20.1682 6.5625C19.8348 6.27083 19.5183 6.04687 19.2185 5.89062C18.9187 5.73437 18.579 5.65625 18.1994 5.65625C17.6786 5.65625 17.2307 5.79687 16.8557 6.07812C16.4807 6.35937 16.1161 6.6875 15.7619 7.0625L14.7932 8.03125L17.1369 10.25C17.3869 10.5208 17.5952 10.8177 17.7619 11.1406C17.9286 11.4635 18.0119 11.8021 18.0119 12.1562C18.0119 12.6979 17.8296 13.151 17.465 13.5156C17.1004 13.8802 16.6486 14.0625 16.1094 14.0625C15.8388 14.0625 15.5726 14.0208 15.311 13.9375C15.0491 13.8542 14.8036 13.6979 14.5744 13.4688L11.9494 10.8125L7.1994 15.5625C7.05357 15.7292 6.93899 15.914 6.85565 16.1169C6.77232 16.3196 6.73065 16.5235 6.73065 16.7288C6.73065 17.0971 6.84784 17.3906 7.08222 17.6094C7.31659 17.8281 7.61784 17.9375 7.98597 17.9375C8.19076 17.9375 8.39211 17.8958 8.59003 17.8125C8.78795 17.7292 8.97024 17.6146 9.1369 17.4687L12.4807 14.1562L12.9182 14.5937L9.54316 17.9375C9.37649 18.1042 9.2567 18.2883 9.18378 18.49C9.11086 18.6915 9.07441 18.8941 9.07441 19.0978C9.07441 19.4426 9.19493 19.7365 9.43597 19.9794C9.67701 20.2223 9.97368 20.3437 10.326 20.3437C10.5333 20.3437 10.7411 20.3021 10.9494 20.2188C11.1577 20.1354 11.3348 20.0208 11.4807 19.875L15.1994 16.125L15.6682 16.5938L11.9182 20.2812C11.7723 20.4479 11.6577 20.638 11.5744 20.8516C11.4911 21.0651 11.4494 21.2734 11.4494 21.4766C11.4494 21.8203 11.5699 22.1132 11.811 22.3553C12.052 22.5976 12.3487 22.7187 12.701 22.7187C12.9083 22.7187 13.1161 22.6771 13.3244 22.5938C13.5327 22.5104 13.7098 22.3958 13.8557 22.25L17.5744 18.5L18.0432 18.9687L14.3244 22.6562C14.1786 22.8229 14.064 23.02 13.9807 23.2475C13.8973 23.475 13.8557 23.683 13.8557 23.8716C13.8557 24.2489 13.9754 24.5469 14.215 24.7656C14.4546 24.9844 14.7411 25.0938 15.0744 25.0938ZM15.0744 25.6562C14.4702 25.6562 13.9754 25.4271 13.59 24.9687C13.2046 24.5104 13.0744 23.9583 13.1994 23.3125C12.5119 23.3958 11.9286 23.2188 11.4494 22.7812C10.9702 22.3438 10.7619 21.7382 10.8244 20.9647C10.0327 21.0091 9.40774 20.8125 8.9494 20.375C8.49107 19.9375 8.3244 19.3437 8.4494 18.5937C7.80357 18.6979 7.25149 18.5781 6.79315 18.2344C6.33482 17.8906 6.10565 17.3886 6.10565 16.7284C6.10565 16.4511 6.15774 16.1719 6.2619 15.8906C6.36607 15.6094 6.53274 15.3542 6.7619 15.125L11.9494 9.9375L14.9494 12.9375C15.1161 13.0833 15.2879 13.1979 15.465 13.2812C15.6421 13.3646 15.8519 13.4062 16.0944 13.4062C16.4161 13.4062 16.7015 13.2865 16.9507 13.0469C17.1998 12.8073 17.3244 12.5074 17.3244 12.1472C17.3244 11.9061 17.2775 11.6911 17.1838 11.5022C17.09 11.3132 16.9807 11.1458 16.8557 11L12.4182 6.5625C12.0848 6.25 11.7614 6.02083 11.4478 5.875C11.1343 5.72917 10.7859 5.65625 10.4025 5.65625C10.0171 5.65625 9.68378 5.73437 9.40253 5.89062C9.12128 6.04687 8.8244 6.27083 8.5119 6.5625L4.50503 10.54C4.19711 10.8467 3.95982 11.2187 3.79315 11.6562C3.62649 12.0937 3.56399 12.5521 3.60565 13.0312C3.64732 13.2396 3.6994 13.4219 3.7619 13.5781C3.8244 13.7344 3.8869 13.8958 3.9494 14.0625L3.41815 14.5625C3.3267 14.3815 3.24649 14.1591 3.17753 13.8953C3.10878 13.6318 3.05357 13.3438 3.0119 13.0312C2.97024 12.4479 3.03795 11.901 3.21503 11.3906C3.39211 10.8802 3.67857 10.4375 4.0744 10.0625L8.04315 6.09375C8.37649 5.73958 8.73586 5.47396 9.12128 5.29687C9.5067 5.11979 9.9494 5.03125 10.4494 5.03125C10.9494 5.03125 11.3869 5.11979 11.7619 5.29687C12.1369 5.47396 12.5015 5.73958 12.8557 6.09375L14.3244 7.5625L15.7932 6.0625C16.1265 5.70833 16.4807 5.44271 16.8557 5.26562C17.2307 5.08854 17.6682 5 18.1682 5C18.6682 5 19.1057 5.08854 19.4807 5.26562C19.8557 5.44271 20.2202 5.70833 20.5744 6.0625L25.6057 11.0937C25.9598 11.4479 26.2411 11.8385 26.4494 12.2656C26.6577 12.6927 26.7619 13.1562 26.7619 13.6562C26.7619 14.1562 26.6577 14.5937 26.4494 14.9687C26.2411 15.3437 25.9598 15.7083 25.6057 16.0625L16.6682 25.0312C16.4182 25.2812 16.1626 25.4479 15.9016 25.5312C15.6408 25.6146 15.365 25.6562 15.0744 25.6562Z" fill="#1C1B1F"/>
</g>
</g>
</svg>
