<svg width="60" height="60" viewBox="0 0 60 60" fill="none" xmlns="http://www.w3.org/2000/svg">
<g id="icon_buy">
<mask id="mask0_41_412" style="mask-type:alpha" maskUnits="userSpaceOnUse" x="0" y="0" width="60" height="60">
<rect id="Bounding box" x="0.5" y="0.5" width="59" height="59" fill="#D9D9D9" stroke="#1C1B1F"/>
</mask>
<g mask="url(#mask0_41_412)">
<path id="real_estate_agent" d="M45.5624 35.5196V20.0969L33.4683 11.3869L21.3743 20.1135V26.8651H20.2647V19.5976L33.4683 10L46.6719 19.5421V35.5196H45.5624ZM34.7443 21.9276H36.1867V20.4852H34.7443V21.9276ZM30.7499 21.9276H32.1924V20.4852H30.7499V21.9276ZM34.7443 25.922H36.1867V24.4796H34.7443V25.922ZM30.7499 25.922H32.1924V24.4796H30.7499V25.922ZM18.5449 43.7302L34.9662 49.1115L48.1144 45.1172C48.0034 43.8967 47.6023 43.0275 46.9111 42.5097C46.2194 41.9919 45.437 41.733 44.5638 41.733H33.7391C33.1887 41.733 32.4882 41.6868 31.6376 41.5944C30.7869 41.5019 29.9548 41.3077 29.1411 41.0118L25.757 39.7359L26.3672 38.6818L30.2506 40.2906C30.7684 40.5495 31.2585 40.679 31.7208 40.679C32.1831 40.679 32.5622 40.6605 32.8581 40.6235H37.962C37.962 39.8838 37.8603 39.3475 37.6569 39.0147C37.4535 38.6818 37.0744 38.4044 36.5196 38.1825L22.5948 33.1895C22.4838 33.1526 22.3821 33.1248 22.2896 33.1063C22.1972 33.0878 22.0955 33.0786 21.9845 33.0786H18.5449V43.7302ZM11 47.7246V31.969H21.8081C22.0367 31.969 22.2545 31.9912 22.4616 32.0356C22.6687 32.08 22.8712 32.1338 23.0691 32.197L37.0189 37.1284C37.5737 37.3503 38.0545 37.7341 38.4613 38.2796C38.8681 38.8251 39.0715 39.6064 39.0715 40.6235H44.5638C46.1327 40.6235 47.3201 41.1505 48.126 42.2046C48.9319 43.2587 49.3349 44.4329 49.3349 45.7274V45.9493L35.0217 50.2766L18.5449 45.0062V47.7246H11ZM12.1095 46.6151H17.4354V33.0786H12.1095V46.6151Z" fill="#1C1B1F"/>
</g>
</g>
</svg>
