<svg width="60" height="60" viewBox="0 0 60 60" fill="none" xmlns="http://www.w3.org/2000/svg">
<g id="icon_sell">
<mask id="mask0_41_428" style="mask-type:alpha" maskUnits="userSpaceOnUse" x="0" y="0" width="60" height="60">
<rect id="Bounding box" x="0.5" y="0.5" width="59" height="59" fill="#D9D9D9" stroke="#1C1B1F"/>
</mask>
<g mask="url(#mask0_41_428)">
<path id="approval_delegation" d="M33.5899 27.8777L28.1505 22.4384L28.8721 21.6613L33.5899 26.3791L43.969 16L44.746 16.777L33.5899 27.8777ZM18.5485 45.0282L34.9774 50.4121L48.1317 46.4158C48.0207 45.1947 47.6137 44.3252 46.9106 43.8072C46.2076 43.2891 45.4306 43.0301 44.5795 43.0301H33.7564C33.2013 43.0301 32.4983 42.9839 31.6472 42.8914C30.7962 42.7989 29.9636 42.6046 29.1496 42.3086L25.7639 41.032L26.3744 39.9774L30.2597 41.587C30.7777 41.846 31.268 41.9756 31.7305 41.9756C32.193 41.9756 32.5723 41.9571 32.8683 41.9201H37.9746C37.9746 41.18 37.8729 40.6435 37.6693 40.3105C37.4658 39.9774 37.0866 39.6999 36.5315 39.4779L22.6002 34.4826C22.4892 34.4456 22.3874 34.4179 22.2949 34.3993C22.2024 34.3808 22.1007 34.3716 21.9897 34.3716H18.5485V45.0282ZM11 49.0245V33.2615H21.8231C22.0452 33.2615 22.2579 33.28 22.4614 33.317C22.6649 33.354 22.8777 33.4095 23.0997 33.4835L37.0311 38.4233C37.5861 38.6454 38.0671 39.0246 38.4741 39.5612C38.8812 40.0977 39.0847 40.884 39.0847 41.9201H44.5795C46.1336 41.9201 47.3177 42.4473 48.1317 43.5019C48.9458 44.5565 49.3528 45.7313 49.3528 47.0264V47.2484L35.0329 51.5776L18.5485 46.3048V49.0245H11ZM12.1101 47.9144H17.4384V34.3716H12.1101V47.9144Z" fill="#1C1B1F"/>
</g>
</g>
</svg>
