<svg width="61" height="61" viewBox="0 0 61 61" fill="none" xmlns="http://www.w3.org/2000/svg">
<g id="icon_rent">
<mask id="mask0_26_242" style="mask-type:alpha" maskUnits="userSpaceOnUse" x="0" y="0" width="61" height="61">
<rect id="Bounding box" x="0.193359" y="0.0276489" width="60" height="60" fill="#D9D9D9"/>
</mask>
<g mask="url(#mask0_26_242)">
<path id="door_sliding" d="M25.082 30.7776C24.6982 30.7776 24.3501 30.6258 24.0376 30.322C23.7251 30.0183 23.5688 29.6745 23.5688 29.2908C23.5688 28.907 23.7207 28.5589 24.0245 28.2464C24.3282 27.9339 24.672 27.7776 25.0557 27.7776C25.4395 27.7776 25.7876 27.9295 26.1001 28.2333C26.4126 28.537 26.5688 28.8808 26.5688 29.2645C26.5688 29.6483 26.417 29.9964 26.1132 30.3089C25.8095 30.6214 25.4657 30.7776 25.082 30.7776ZM35.332 30.7776C34.9482 30.7776 34.6001 30.6258 34.2876 30.322C33.9751 30.0183 33.8188 29.6745 33.8188 29.2908C33.8188 28.907 33.9707 28.5589 34.2745 28.2464C34.5782 27.9339 34.922 27.7776 35.3057 27.7776C35.6895 27.7776 36.0376 27.9295 36.3501 28.2333C36.6626 28.537 36.8188 28.8808 36.8188 29.2645C36.8188 29.6483 36.667 29.9964 36.3632 30.3089C36.0595 30.6214 35.7157 30.7776 35.332 30.7776ZM14.0688 47.7776V46.5276H17.0688V15.5276C17.0688 14.5818 17.3743 13.8037 17.9851 13.1933C18.5959 12.5829 19.3747 12.2776 20.3213 12.2776H40.0863C41.033 12.2776 41.8084 12.5829 42.4126 13.1933C43.0168 13.8037 43.3188 14.5818 43.3188 15.5276V46.5276H46.3188V47.7776H14.0688ZM18.3188 46.5276H29.5688V13.5276H20.3188C19.8188 13.5276 19.3605 13.736 18.9438 14.1526C18.5272 14.5693 18.3188 15.0276 18.3188 15.5276V46.5276ZM30.8188 46.5276H42.0688V15.5276C42.0688 15.0276 41.8605 14.5693 41.4438 14.1526C41.0272 13.736 40.5688 13.5276 40.0688 13.5276H30.8188V46.5276Z" fill="#1C1B1F"/>
</g>
</g>
</svg>
